<svg width="48" height="48" viewBox="0 0 48 48" fill="none" xmlns="http://www.w3.org/2000/svg"><mask id="mask0" mask-type="alpha" maskUnits="userSpaceOnUse" x="0" y="0" width="48" height="48"><path d="M0 4C0 1.79086 1.79086 0 4 0H44C46.2091 0 48 1.79086 48 4V44C48 46.2091 46.2091 48 44 48H4C1.79086 48 0 46.2091 0 44V4Z" fill="#F2F2F2"></path></mask><g mask="url(#mask0)"><path d="M-59 -34H316V121H-59V-34Z" fill="#EFEFEF"></path><mask id="mask1" mask-type="alpha" maskUnits="userSpaceOnUse" x="-59" y="-34" width="375" height="155"><path d="M-59 -34H316V121H-59V-34Z" fill="#C4C4C4"></path></mask><g mask="url(#mask1)"><circle cx="49.5" cy="-1.5" r="6" stroke="#DCDCDC"></circle><path d="M42.8458 45.1068L48.1312 31.4526C48.3336 30.9298 48.9262 30.6755 49.4446 30.8889L56.0693 33.6168C56.5823 33.828 56.8253 34.4165 56.6108 34.9282L50.8927 48.5636C50.6768 49.0784 50.0812 49.3168 49.5697 49.093L43.3775 46.3839C42.8869 46.1693 42.6524 45.6062 42.8458 45.1068Z" stroke="#DCDCDC"></path><path d="M7.4956 50.2578L-1.90691 36.0679C-3.21922 34.0874 -3.48603 31.5923 -2.62217 29.3791C0.236471 22.0553 8.58232 18.5427 15.8178 21.618L17.3786 22.2813C17.7309 22.4311 17.9115 22.8242 17.7957 23.189L9.28233 50.008C9.02814 50.8088 7.95965 50.9582 7.4956 50.2578Z" fill="#E2EDCC"></path><path d="M711.295 -421.371L765.338 -394.516L766.351 -396.822L712.307 -423.678L712.404 -423.883L710.234 -424.959L710.138 -424.703L684.731 -437.311L713.32 -503.579L724.938 -497.941L725.902 -500.247L714.284 -505.885L714.766 -507.013L712.597 -508.089L712.115 -506.961L689.504 -517.878L730.868 -613.308L724.36 -616.486L715.586 -596.293L714.091 -598.087C713.657 -597.676 670.22 -556.522 649.827 -539.916C649.635 -539.762 649.394 -539.557 649.152 -539.404L628.374 -572.307C658.409 -588.195 682.369 -608.234 682.755 -608.542L682.948 -608.696L695.145 -633.348L693.023 -634.526L681.067 -610.336C677.259 -607.209 620.082 -560.417 572.885 -555.907C564.11 -555.086 555.481 -553.241 547.237 -550.423C521.252 -541.607 504.668 -525.309 498.69 -518.647C493.194 -525.002 489.192 -530.281 488.421 -532.946C487.987 -534.381 488.035 -536.585 488.084 -538.942C488.18 -544.17 488.277 -551.294 482.732 -556.163C475.115 -562.979 459.158 -563.389 431.003 -557.547C427.918 -556.932 425.025 -556.419 422.229 -556.009C424.447 -586.35 447.202 -627.505 447.491 -628.017L441.32 -631.912C440.163 -629.811 416.878 -587.785 415.046 -555.24C379.805 -552.626 373.007 -571.794 367.945 -586.247C366.354 -590.706 365.004 -594.601 362.979 -597.523C357.965 -604.8 338.874 -616.229 321.856 -625.455L326.629 -634.885L320.314 -638.473L315.444 -628.837C304.501 -634.629 295.437 -639.036 293.123 -640.113L290.182 -633.194C295.389 -630.682 303.392 -626.685 312.07 -622.072L291.05 -580.456L254.797 -599.88L264.728 -624.993L262.51 -625.967L252.627 -601.008L221.676 -617.562L226.497 -629.452L224.328 -630.477L219.555 -618.741L216.373 -620.432L215.313 -618.177L218.591 -616.434L179.734 -520.799L141.6 -540.787L153.701 -568.771L166.091 -563.338L183.205 -586.401L194.92 -625.147L192.654 -625.916L181.084 -587.58L165.367 -566.362L154.713 -571.026L179.589 -628.325L173.081 -631.502L64.9465 -381.6L45.277 -387.699L118.845 -575.331L121.063 -575.536L159.389 -634.526L153.508 -638.831L117.061 -582.762L75.5044 -578.765L-30.5571 -633.347L-33.6907 -626.48L-26.7003 -622.892L-87.6856 -531.152L-177.163 -572.409L-138.113 -642.829L-140.138 -644.11L-179.332 -573.434L-243.692 -603.058L-244.657 -600.751L-180.634 -571.231L-191.819 -551.038L-243.692 -576.1L-244.657 -573.793L-193.024 -548.834L-220.793 -498.761L-254.202 -515.008L-257.191 -508.089L-139.463 -450.892L-165.448 -390.467L-255.166 -433.979L-256.179 -431.673L-188.01 -398.616C-189.939 -394.208 -197.266 -377.346 -208.21 -351.157L-271.124 -379.755L-272.04 -377.397L-209.126 -348.799C-212.404 -340.958 -215.972 -332.296 -219.829 -322.968C-221.998 -317.689 -223.444 -312.667 -224.264 -307.798L-266.158 -333.065L-267.315 -330.861L-224.65 -305.133C-226.626 -290.372 -223.107 -277.816 -218.045 -267.924L-241.571 -213.239L-239.402 -212.163L-216.695 -265.259C-210.09 -253.574 -201.605 -246.142 -199.05 -244.041L-219.491 -194.276L-282.646 -224.053L-283.61 -221.747L-220.407 -191.97L-231.833 -164.14L-257.673 -175.672L-258.589 -173.314L-232.749 -161.782L-238.679 -147.483L-236.509 -146.458L-230.627 -160.757L-180.104 -138.207L-194.084 -103.92L-249.092 -127.136L-251.743 -120.064L-196.929 -96.9493L-236.654 0.582386L-274.739 -15.9207L-275.655 -13.5631L-237.618 2.88866L-248.658 29.9494L-242.101 32.9733L-231.013 5.75872L-215.393 12.5239L-244.946 39.3797L-243.403 41.3273L-212.886 13.6515L-145.682 42.7622L-158.94 80.9446L-262.88 44.7098L-263.603 47.1186L-159.759 83.3535L-168.099 107.39L-327.288 51.2187L-328.059 53.6277L-168.967 109.697L-177.5 134.195L-282.742 96.2176L-283.514 98.6264L-178.32 136.553L-185.937 158.488L-266.399 126.712L-267.219 129.07L-186.757 160.846L-195.531 186.01L-255.263 163.716L-256.034 166.125L-196.302 188.419L-205.365 214.506L-259.168 192.57L-260.035 194.928L-206.233 216.864L-215.586 243.719L-289.009 210.406L-289.974 212.815L-216.454 246.179L-225.855 273.138L-270.497 257.096L-272.811 264.323L-228.362 280.313L-238.727 310.193L-236.509 311.064L-226.096 281.133L-178.513 298.251L-248.995 349.759L-244.946 356.011L-170.413 301.531L-147.321 315.164L-236.123 412.029L-234.436 413.823L-145.2 316.445L-94.0973 346.632L-109.717 396.449L-107.451 397.269L-91.9279 347.657L-35.185 371.131L-55.3366 417.206L-48.8283 420.435L-28.5802 374.103L1.93659 389.171L-0.136433 396.449L2.12944 397.166L4.10603 390.247L24.3541 400.241L27.3913 393.322L6.22727 382.867L21.2205 330.283L28.693 332.948L29.4643 330.539L21.9436 328.899L29.8018 302.402L50.5802 302.402L27.9699 397.525L30.2839 397.628L40.9865 351.809L69.6713 348.272L56.269 400.959L58.5831 401.574L72.13 348.221L97.9704 355.909L84.3271 410.697L86.6412 411.363L105.25 336.69L129.355 343.609L118.46 392.349L120.774 392.912L131.669 344.224L156.304 351.296L146.421 386.66L148.687 387.377L158.57 351.963L183.88 359.24L175.106 396.449L177.42 397.064L195.161 321.724L218.977 328.848L203.743 386.66L206.057 387.326L211.215 367.851L237.007 374.564L229.149 403.265L236.043 405.418L244.191 375.794L284.398 361.29L293.557 385.481L295.775 384.559L286.663 360.47L346.877 338.74L356.519 365.8L340.321 384.148L342.056 385.891L357.435 368.465L364.233 387.48L366.451 386.557L359.267 366.364L398.366 322.083L417.167 337.51L381.926 386.814L387.615 391.426L422.856 342.173L454.433 368.107L440.308 388.402L442.236 389.94L456.314 369.696L473.525 383.841L474.971 381.842L457.712 367.697L494.544 314.856L527.471 343.199L494.158 391.99L496.087 393.476L513.346 368.209L543.718 390.299L545.068 388.197L514.744 366.159L529.303 344.839L602.052 407.468L606.535 401.574L559.965 361.495L572.113 342.122L606.969 367.287L610.874 387.428L613.188 386.916L596.797 302.607L611.742 278.724L643.03 275.29L670.51 389.581L672.824 388.966L645.441 275.034L675.909 271.703L699.146 389.53L701.46 389.017L678.271 271.446L706.812 268.32L724.36 303.94L730.724 300.403L714.477 267.5L746.392 264.015L746.151 261.504L713.32 265.091L659.421 155.823L709.222 114.566L707.776 112.567L658.023 153.773L633.195 126.507L717.177 64.2366L715.827 62.1353L631.556 125.533L605.619 97.9601L648.574 97.9601L729.904 27.1818L725.42 20.8266L694.614 47.0673L691.288 0.0184324L736.027 -2.44166L735.882 -5.00422L691.047 -2.5954L685.551 -80.7026L753.912 -85.6228L753.768 -88.1341L685.406 -83.2652L682.562 -123.498L710.138 -143.486L720.31 -143.127L720.551 -150.712L680.585 -152.199L678.85 -197.71L699.532 -232.92L708.643 -234.201L708.306 -236.712L701.171 -235.687L713.031 -255.88L715.971 -254.548L716.887 -256.905L714.284 -258.084L721.419 -270.179L719.394 -271.512L712.066 -259.058L676.295 -275.1L704.208 -343.828L705.172 -343.367L706.136 -345.673L705.172 -346.134L721.467 -386.213L719.298 -387.238L703.003 -347.21L682.321 -356.897L711.295 -421.371ZM680.248 -358.076L669.642 -363.047L696.639 -428.649L709.125 -422.448L680.248 -358.076ZM673.691 -273.767L675.282 -232.151L650.406 -228.614L650.502 -284.171L673.691 -273.767ZM678.753 -144.716L679.766 -130.673L628.615 -93.5668L626.446 -108.378L648.429 -145.843L678.753 -144.716ZM573.367 280.364L586.432 261.247L589.806 278.57L573.367 280.364ZM590.24 281.03L594.338 302.044L571.487 338.535L546.128 320.238L571.439 283.132L590.24 281.03ZM570.137 280.672L514.069 286.822L555.144 227.831L584.696 252.893L585.66 257.865L570.137 280.672ZM273.888 326.849L264.439 301.941L268.296 287.949L321.567 267.961L334.054 303.017L273.888 326.849ZM157.847 307.938L159.197 292.716L183.495 264.117L198.97 268.115L193.378 318.649L157.847 307.938ZM113.205 294.561L129.885 281.953L156.786 293.023L155.533 307.271L113.205 294.561ZM64.2236 294.253L96.0902 185.908L128.632 195.646L113.156 250.895L98.79 263.041L97.0062 273.189L96.5241 273.496L104.961 292.203L103.177 294.253L64.2236 294.253ZM-90.9157 -500.862L-90.4336 -501.99L-100.799 -507.013L-86.8179 -528.026L-56.0118 -513.829L-88.6016 -434.594L-113.189 -446.536L-90.9157 -500.862ZM-115.406 -447.561L-134.256 -456.735L-102.197 -504.911L-93.5672 -500.709L-115.406 -447.561ZM79.6505 -554.471L79.6987 -554.471L45.3733 -469.804L23.2451 -480.003L53.3279 -553.754L65.1393 -561.288L74.2028 -565.08L80.8557 -555.24L80.8557 -554.42L79.6505 -554.42L79.6505 -554.471ZM126.751 -474.417L115.277 -479.644L119.616 -489.741L130.56 -483.539L133.838 -485.282L127.908 -471.188L126.751 -474.417ZM124.871 -472.52L129.307 -460.476L118.749 -435.158L99.8022 -443.922L114.265 -477.338L124.871 -472.52ZM117.784 -432.852L92.1368 -371.35L72.3708 -380.524L98.7898 -441.616L117.784 -432.852ZM117.254 -406.406L126.8 -413.427L131.283 -426.599L139.913 -422.601L114.795 -360.792L105.009 -365.353L112.578 -384.368L110.36 -385.341L102.839 -366.327L94.3063 -370.274L119.954 -431.775L129.066 -427.573L124.823 -415.016L115.904 -408.456L117.254 -406.406ZM248.915 -528.999L260.341 -519.569L246.746 -492.662L217.434 -505.219L230.161 -537.405L248.915 -528.999ZM444.502 -454.172L427.146 -443.563L428.352 -441.359L445.37 -451.763C449.034 -441.616 452.023 -433.569 453.565 -429.367L442.333 -422.038L412.057 -432.954L410.466 -472.059L442.333 -460.22C443.056 -458.17 443.779 -456.12 444.502 -454.172ZM618.877 -519.005L602.534 -480.054L588.842 -515.572C597.472 -515.93 608.126 -516.802 618.877 -519.005ZM652.913 -532.843L654.938 -531.87L627.94 -465.601L604.076 -477.492L621.769 -519.62C633.099 -522.183 644.283 -526.283 652.913 -532.843ZM655.082 -534.535C655.564 -534.945 655.998 -535.303 656.529 -535.713L655.902 -534.125L655.082 -534.535ZM627.892 -79.1651L620.805 -78.6526L627.603 -83.5727L627.892 -79.1651ZM609.669 -79.8314L624.517 -105.098L626.446 -91.978L609.669 -79.8314ZM604.751 -76.2438L598.098 -71.4261L596.845 -147.791L618.395 -146.971L623.939 -108.891L604.751 -76.2438ZM500.426 178.937L499.558 178.937L501.052 97.9601L532.148 97.9601L532.148 135.374L500.426 178.937ZM490.639 234.955L480.37 209.791L500.811 181.705L518.215 196.465L490.639 234.955ZM479.31 207.126L467.932 179.245L497.87 138.654L497.147 178.015L497.147 178.63L498.979 180.168L479.31 207.126ZM400.246 223.885L411.045 210.201L409.213 208.561L398.365 222.296L376.671 203.589L440.935 119.486L465.136 178.835L419.626 240.542L400.246 223.885ZM204.466 216.095L169.996 205.434L185.953 152.748L215.843 162.793L215.265 164.69L204.948 215.685L204.466 216.095ZM182 262.067L179.3 265.245L168.26 252.842L200.705 228.241L198.295 236.954L185.857 242.336L182 262.067ZM157.702 290.666L132.199 280.159L153.219 264.22L166.862 279.852L157.702 290.666ZM113.928 253.252L117.929 259.095L99.7059 271.344L100.911 264.374L113.928 253.252ZM106.745 140.704L77.7223 132.145L81.8201 117.692L110.65 127.378L106.745 140.704ZM82.5432 115.283L102.936 43.736L132.489 53.8839L111.421 125.021L82.5432 115.283ZM32.2123 161.871L-5.63241 140.601L1.7919 122.817L39.6848 133.272L36.8404 143.779L32.2123 161.871ZM-62.761 271.036L-84.4554 250.331L-48.6355 211.277L-39.8131 216.146L-62.761 271.036ZM-72.9332 197.849L-50.8532 210.047L-86.2391 248.64L-104.27 231.419L-72.9332 197.849ZM-62.2789 -40.1626L-69.8479 -19.4057L-114.683 -38.9326L-107.596 -59.2794L-62.2789 -40.1626ZM64.0306 -300.725L26.9573 -241.632L18.9545 -245.425L42.3844 -310.873L64.0306 -300.725ZM214.3 -503.835L198.391 -463.551L186.676 -468.676L201.043 -509.216L214.3 -503.835ZM345.961 -454.07L297.028 -355.513L295.389 -356.128L293.847 -354.232L251.181 -373.964L296.691 -471.803L345.961 -454.07ZM413.214 -403.075L412.105 -430.238L439.633 -420.295L413.214 -403.075ZM410.9 -401.588L406.802 -398.923L406.465 -398.718L406.175 -398.411L371.657 -416.297L382.938 -440.796L409.743 -431.16L410.9 -401.588ZM459.158 -409.532L492.712 -414.247L498.979 -370.479L453.132 -364.328L459.158 -409.532ZM603.112 -475.134L627.024 -463.244L599.593 -395.899L597.134 -397.078L593.904 -395.131L583.346 -431.314L584.937 -431.775L603.112 -475.134ZM617.864 -286.887L619.263 -224.207L595.688 -220.876L594.579 -287.81L617.864 -286.887ZM596.749 -155.427L595.736 -218.313L619.359 -221.644L620.853 -154.505L596.749 -155.427ZM530.46 -22.3272L502.836 -2.28782L503.318 -29.5537L530.412 -30.0661L530.46 -22.3272ZM532.774 -30.1174L541.452 -30.2712L532.871 -24.0185L532.774 -30.1174ZM442.429 117.743L442.911 97.9601L470.873 97.9601L453.855 146.239L442.429 117.743ZM312.022 248.178L351.747 192.007L370.259 207.946L328.895 262.067L312.022 248.178ZM147.916 198.567L163.536 145.163L183.687 151.928L167.682 204.666L147.916 198.567ZM164.259 142.805L175.877 103.085L196.367 110.107L184.41 149.57L164.259 142.805ZM6.27538 105.802L-16.2868 96.0126L7.72166 48.9124L34.1888 38.8671L6.27538 105.802ZM-45.0681 -66.7109L-36.3903 -90.9529L24.3058 -65.5321L31.6337 -41.7514L-8.3322 -25.7097L-53.0227 -44.5703L-45.8876 -64.4558L4.44337 -40.2139L5.40758 -42.5202L-45.0681 -66.7109ZM-63.677 -102.382L-43.0433 -93.7204L-51.5764 -69.8373L-81.6593 -84.3414L-63.677 -102.382ZM-9.44107 -187.664L-43.4772 -157.734L-43.0433 -173.263L-29.0625 -206.474L-6.06641 -196.941L-9.44107 -187.664ZM1.64716 -193.866L4.68439 -192.738L4.68441 -132.364L4.05767 -132.262L23.4862 -68.6585L-35.4743 -93.3617L0.200869 -192.738L1.64716 -193.866ZM123.184 -272.947L113.831 -249.217L72.7083 -268.693L88.1354 -289.399L123.184 -272.947ZM178.818 -407.431L199.693 -460.271L225.389 -448.996L200.32 -397.539L178.818 -407.431ZM247.903 -372.734L219.121 -312.411L184.217 -328.606L205.767 -392.158L247.903 -372.734ZM337.284 -431.212L368.427 -415.067L334.343 -341.009L299.294 -354.591L337.284 -431.212ZM565.653 -376.885C565.942 -375.911 566.183 -374.937 566.473 -373.964L545.935 -293.55L545.309 -292.474L505.487 -306.67L509.248 -312.923L509.489 -313.333L501.631 -368.275L565.653 -376.885ZM309.66 145.932L327.69 133.17L354.205 155.106L353.916 184.114L309.66 145.932ZM177.806 66.748L186.291 37.9959L207.262 44.8636L199.789 74.2819L177.806 66.748ZM95.8491 -43.1352L99.1756 -54.2568C99.9952 -55.2306 101.827 -57.3832 104.286 -60.202L160.016 -39.2914L155.051 -22.4809L95.8491 -43.1352ZM72.9495 10.2175L42.8184 -1.82658L44.5539 -17.8682L56.751 -17.8682L78.0597 -7.9254L72.9495 10.2175ZM78.7346 -10.8981L57.2331 -21.4559L44.0718 -21.4559L34.9602 -34.73L63.5968 -46.3128L86.9303 -38.1638L78.7346 -10.8981ZM145.843 -209.805L173.033 -211.496L172.985 -212.778L174.045 -212.214L188.412 -242.401L199.596 -237.173L127.619 -149.072L145.843 -209.805ZM293.413 -264.439L306.622 -259.57L291.147 -208.78L268.247 -216.673L274.997 -243.17L293.413 -264.439ZM458.82 -233.945L437.367 -198.376L407.573 -194.173L425.507 -253.984L427.532 -260.134L458.82 -233.945ZM504.186 -304.467L544.055 -290.27L522.072 -251.78L488.421 -278.328L504.186 -304.467ZM520.866 -249.628L498.497 -210.471L464.606 -238.865L487.168 -276.278L520.866 -249.628ZM491.989 -206.166L440.452 -198.837L460.701 -232.356L491.989 -206.166ZM449.275 -119.449L473.091 -114.067L472.464 -31.5012L453.325 -31.1424C450.769 -31.0912 448.311 -30.9375 445.948 -30.6299L448.021 -117.296L449.275 -119.449ZM450.577 -121.704L465.425 -147.688L472.657 -116.681L450.577 -121.704ZM448.118 -122.268L436.981 -124.779L461.568 -164.14L464.606 -151.122L448.118 -122.268ZM434.474 -125.394L400.728 -133.03L438.765 -196.07L482.491 -202.271L434.474 -125.394ZM337.043 40.8147L352.229 -9.77053L380.48 -0.186486L377.78 55.0113L337.043 40.8147ZM375.9 89.3498L329.474 68.4905L335.403 48.0923L375.9 62.1353L375.9 89.3498ZM309.418 111.849L275.527 100.215L294.859 34.1008L302.524 36.7659L290.231 93.2963L313.323 97.8576L309.418 111.849ZM160.739 -41.7515L106.07 -62.252C110.939 -67.7359 117.592 -75.1162 124.437 -82.0351L168.357 -67.5309L160.739 -41.7515ZM70.9728 -134.158L110.746 -117.757L102.309 -89.6203L60.8006 -108.378L70.9728 -134.158ZM126.269 -144.511L126.703 -144.101L201.862 -236.046L205.141 -234.508L235.079 -208.473L202.441 -170.905L173.804 -200.682L172.117 -198.889L200.802 -169.009C194.775 -162.141 153.604 -115.144 138.563 -104.483C128.246 -97.1544 114.072 -82.1889 104.334 -71.3748L126.269 -144.511ZM253.929 -218.979L265.355 -215.033L248.481 -148.611L205.333 -163.064C206.105 -163.935 206.635 -164.55 206.78 -164.755L253.929 -218.979ZM255.713 -221.029L271.525 -239.223L266.03 -217.493L255.713 -221.029ZM327.304 -210.215L345.817 -204.27L351.939 -214.674L363.799 -210.164L357.001 -186.947L355.266 -186.691L323.688 -197.556L327.304 -210.215ZM354.784 -184.282L355.025 -184.179L356.23 -184.333L337.091 -118.936L303.922 -130.058L322.965 -195.198L354.784 -184.282ZM398.269 -133.594L390.025 -135.542L406.802 -191.508L435.68 -195.608L398.269 -133.594ZM382.986 -137.233L347.456 -145.69L358.833 -184.692L398.944 -190.381L382.986 -137.233ZM330.245 38.4571L296.98 26.8743L319.109 -48.7729L352.904 -37.0363L330.245 38.4571ZM227.317 48.8099L218.543 45.9398L220.857 38.5084L229.487 41.3785L227.317 48.8099ZM230.162 38.9184L221.58 36.0995L229.246 11.3451L237.297 14.1639L230.162 38.9184ZM216.904 6.9887L210.444 32.3582L189.955 25.593L197.427 0.223509L216.904 6.9887ZM207.021 -27.196L222.4 -32.4237L224.087 -24.2747L222.544 -23.0447L212.035 -15.2032L206.201 -21.0459L207.021 -27.196ZM239.514 -40.8802L223.942 -35.6013L218.157 -47.2866L221.05 -59.9457L230.065 -59.9457L229.679 -59.4332L239.514 -40.8802ZM261.16 -141.692L253.64 -123.959L253.399 -120.422L220.134 -132.877L226.208 -153.428L261.16 -141.692ZM267.524 -14.0756L256.243 -18.637L251.808 -25.6072L256.821 -46.0053L274.611 -38.3176L267.524 -14.0756ZM240.768 -38.4201L243.66 -33.8588L235.127 -32.9362L226.208 -25.9148L224.714 -33.1412L240.671 -38.5739L240.768 -38.4201ZM236.043 -30.4761L245.203 -31.5012L253.591 -18.3295L250.602 -9.82179L238.309 -2.54401L232.717 -2.54401L224.714 -20.8922L236.043 -30.4761ZM275.334 -40.7264L257.448 -48.4654L262.366 -68.4535L281.505 -61.8421L275.334 -40.7264ZM263.041 -70.9135L274.273 -108.327C275.479 -108.84 276.636 -109.25 277.745 -109.66C285.651 -112.325 291.629 -103.048 292.882 -100.844L282.18 -64.2509L263.041 -70.9135ZM303.199 -127.598L336.368 -116.476L317.518 -51.9505L284.446 -63.4309L303.199 -127.598ZM293.798 -103.971C291.195 -107.815 285.121 -114.836 277.021 -112.069C276.298 -111.812 275.527 -111.556 274.756 -111.249C275.093 -115.451 275.623 -124.523 274.032 -127.393C272.924 -129.34 272.634 -134.67 272.538 -137.951L300.933 -128.469L293.798 -103.971ZM270.127 -138.668C270.127 -136.003 270.32 -128.93 271.959 -126.009C273.068 -124.01 272.731 -115.451 272.249 -110.172C270.513 -109.403 268.681 -108.583 266.897 -107.712C266.367 -109.301 265.258 -111.915 263.667 -113.657C261.739 -115.81 257.786 -115.092 255.472 -114.426L256.002 -123.241L263.474 -140.821L270.127 -138.668ZM254.411 -103.92L254.845 -104.278L255.327 -111.812C257.689 -112.581 260.919 -113.094 261.98 -111.966C263.33 -110.48 264.294 -108.071 264.728 -106.687C257.448 -103.099 250.94 -99.3069 250.506 -99.0506L250.169 -98.8457L247.469 -93.0029L242.31 -93.8743C245.155 -96.3344 250.651 -100.844 254.411 -103.92ZM219.459 -130.417L253.302 -117.757L252.531 -105.56C248.144 -101.972 241.539 -96.5393 239.321 -94.5918L213.288 -109.557L219.459 -130.417ZM240.334 -91.6191L248.819 -90.1842L252.001 -97.0006C253.881 -98.0769 263.185 -103.356 271.429 -107.046L260.823 -71.6311L238.695 -79.3188C239.225 -84.3414 239.948 -89.5691 240.334 -91.6191ZM260.1 -69.2223L250.072 -28.3748L242.841 -39.7527L232.331 -60.202L238.116 -76.91L260.1 -69.2223ZM219.17 7.80871L226.98 10.5251L219.314 35.3307L212.758 33.1782L219.17 7.80871ZM211.36 -2.95411L213.047 -12.8456L222.785 -19.3546L231.27 0.0697571L238.936 0.0697562L252.531 -7.92542L255.423 -15.8695L266.897 -11.4619L259.473 13.9076L211.36 -2.95411ZM283.771 -61.022L316.843 -49.5417L294.714 26.1055L261.691 14.5739L283.771 -61.022ZM353.627 -39.4452L319.783 -51.1818L338.633 -115.759L373.055 -104.227L353.627 -39.4452ZM373.778 -106.636L339.357 -118.167L346.684 -143.281L382.215 -134.824L373.778 -106.636ZM301.657 -130.827L272.875 -140.462L292.738 -205.654L320.699 -196.018L301.657 -130.827ZM270.561 -141.179L250.747 -147.791L267.62 -214.213L290.424 -206.371L270.561 -141.179ZM169.08 -69.9398L126.462 -84.0339C132.151 -89.6716 137.792 -94.7967 142.516 -98.128C145.216 -100.024 148.639 -102.946 152.496 -106.585L177.42 -97.9232L169.08 -69.9398ZM154.52 -108.532C164.934 -118.475 177.95 -132.467 188.364 -143.998L189.376 -138.617L178.047 -100.383L154.52 -108.532ZM191.883 -138.463L190.437 -146.202C195.981 -152.352 200.657 -157.631 203.55 -160.962L223.942 -154.146L205.285 -90.9529L180.361 -99.6144L191.883 -138.463ZM212.565 -107.097L238.068 -92.4392C237.73 -90.9016 237.2 -87.5703 236.332 -80.1901L207.599 -90.1841L212.565 -107.097ZM236.236 -77.6788L231.752 -63.3284L231.752 -60.9195L219.121 -60.9195L215.65 -46.1591L221.677 -34.115L206.201 -29.1948L192.944 -40.3677L207.117 -87.5703L236.236 -77.6788ZM192.172 -38.0101L204.707 -27.606L203.743 -20.0721L210.733 -13.1019L209.142 -3.7229L184.651 -12.2306L192.172 -38.0101ZM195.209 -0.54529L187.689 24.8242L174.817 20.5704L182.386 -5.00415L195.209 -0.54529ZM174.142 23.0304L187.014 27.2843L184.748 34.8696L171.876 30.6669L174.142 23.0304ZM189.28 28.0018L209.865 34.8182L207.937 42.4035L187.062 35.587L189.28 28.0018ZM212.131 35.587L218.591 37.7396L216.277 45.1711L210.203 43.1722L212.131 35.587ZM215.554 47.5799L211.215 61.6741L205.912 60.1365L209.576 45.6323L215.554 47.5799ZM217.82 48.3487L226.642 51.2187L218.206 80.5858L208.853 77.357L217.82 48.3487ZM239.562 14.8815L257.304 21.0316L237.923 87.2998L220.471 81.3034L239.562 14.8815ZM259.57 21.8516L292.593 33.3833L273.261 99.4977L240.189 88.1711L259.57 21.8516ZM314.047 95.5L305.513 93.8088L315.059 64.9029L321.808 67.978L314.047 95.5ZM313.661 61.469L303.151 93.3475L293.123 91.3487L304.79 37.5858L328.124 45.6836L322.531 65.4667L313.661 61.469ZM380.624 -2.80038L352.952 -12.1794L359.894 -35.2426L381.974 -30.3224L380.624 -2.80038ZM360.617 -37.7027L389.254 -133.133L396.871 -131.339L386.168 -113.555L385.975 -113.247L382.07 -32.9362L360.617 -37.7027ZM388.338 -112.427L399.378 -130.724L433.076 -123.088L431.534 -120.628L431.437 -120.474L405.452 -27.7599L384.481 -32.4237L388.338 -112.427ZM418.758 -256.393L409.213 -224.566L374.26 -237.43L390.073 -291.551L421.651 -265.105L418.758 -256.393ZM408.489 -222.157L399.763 -193.046L359.605 -187.357L373.537 -234.97L408.489 -222.157ZM364.474 -212.624L350.927 -217.749L344.756 -207.243L328.027 -212.624L338.344 -247.936L371.271 -235.841L364.474 -212.624ZM321.374 -198.427L293.413 -208.063L308.84 -258.802L336.03 -248.808L321.374 -198.427ZM236.67 -210.318L206.539 -236.558L205.767 -235.585L206.249 -236.763L203.501 -238.045L249.638 -294.524L283.578 -264.337L236.67 -210.318ZM201.236 -239.121L189.472 -244.656L218.061 -304.672L222.448 -302.622C224.135 -301.648 236.718 -294.78 248.529 -297.035L201.236 -239.121ZM119.665 -147.535L82.3503 -163.013L99.2719 -205.91L132.633 -190.842L119.665 -147.535ZM118.942 -145.074L117.736 -141.077L79.7952 -156.452L81.4343 -160.604L118.942 -145.074ZM117.013 -138.668L111.469 -120.166L71.8888 -136.464L78.831 -154.146L117.013 -138.668ZM59.1614 -109.403L7.57698 -133.03L7.57697 -183.462L77.4329 -155.017L59.1614 -109.403ZM57.6669 -107.097L39.7811 -61.7395L26.1859 -67.4285L6.90203 -130.058L57.6669 -107.097ZM38.8651 -59.3819L33.1282 -44.8779L27.1502 -64.3021L38.8651 -59.3819ZM41.0828 -58.4595L56.8474 -51.8479L35.0083 -43.084L41.0828 -58.4595ZM64.6092 -54.0517L63.4039 -54.4618L60.1738 -53.1805L41.9988 -60.8171L59.8846 -106.123L101.586 -87.2628L89.0997 -45.5953L64.6092 -54.0517ZM179.638 -97.1544L204.562 -88.4929L182.289 -13.0506L157.317 -21.7634L179.638 -97.1544ZM180.168 -5.77289L171.153 24.773L146.132 16.1628L155.195 -14.4857L180.168 -5.77289ZM171.153 33.0758L184.025 37.2783L175.54 65.9792L162.716 61.5715L171.153 33.0758ZM205.285 62.5966L210.444 64.0829L206.587 76.6395L202.152 75.102L205.285 62.5966ZM237.2 89.7599L228.763 118.563L199.355 108.467L208.033 79.7659L237.2 89.7599ZM239.466 90.5799L272.538 101.906L264.101 130.761L231.029 119.383L239.466 90.5799ZM274.852 102.675L308.743 114.309L300.548 143.266L266.415 131.53L274.852 102.675ZM354.254 151.877L329.763 131.684L354.591 114.104L354.254 151.877ZM309.901 136.604L328.461 70.9505L373.682 91.3999L309.901 136.604ZM380.528 55.8313L384.481 -29.8612L407.188 -24.7872L433.607 -119.398L435.535 -122.524L446.768 -119.961L445.756 -118.219L445.611 -117.911L443.538 -30.1687C433.221 -28.4774 425.363 -24.326 420.108 -17.7146C411.527 -7.00302 412.973 6.21994 413.118 7.44998L414.95 61.8278L383.131 85.1985L383.131 56.6514L380.528 55.8313ZM414.564 73.2569L414.226 90.7849L390.363 90.7849L414.564 73.2569ZM416.974 70.3868L441.61 53.0638L440.742 90.7849L416.637 90.7849L416.974 70.3868ZM416.926 60.0852L415.528 7.24497L415.528 7.09122C415.528 6.93747 413.889 -6.0292 421.988 -16.177C426.809 -22.1734 434.041 -26.0686 443.538 -27.7086L441.899 41.9422L416.926 60.0852ZM445.9 -28.0161C448.263 -28.3236 450.769 -28.5286 453.373 -28.5799L472.416 -28.9386L472.03 20.0578L444.261 40.1997L445.9 -28.0161ZM474.826 -28.9899L500.956 -29.5024L500.425 -0.493996L474.489 18.3665L474.826 -28.9899ZM474.826 -31.5012L475.453 -114.17L502.691 -126.009L501.004 -32.0137L474.826 -31.5012ZM475.115 -116.784L467.209 -150.763L490.928 -192.277L502.595 -128.725L475.115 -116.784ZM466.341 -154.249L463.352 -167.061L485.625 -202.681L494.64 -203.962L494.737 -203.86L466.341 -154.249ZM501.92 -207.55L500.377 -208.831L528.242 -257.623L528.676 -211.343L501.92 -207.55ZM528.725 -208.78L528.966 -184.897L504.523 -205.398L528.725 -208.78ZM530.605 -261.774L546.948 -289.655L561.025 -289.142L561.025 -215.853L531.473 -211.701L530.605 -261.774ZM507.03 -313.897L502.981 -307.234L482.925 -305.492L475.694 -364.79L499.317 -367.967L507.03 -313.897ZM501.39 -304.518L486.493 -279.866L486.011 -280.225L483.215 -302.98L501.39 -304.518ZM483.793 -278.841L485.191 -277.713L462.677 -240.402L454.53 -247.219L449.371 -300.059L480.852 -302.775L483.793 -278.841ZM447.009 -299.854L451.926 -249.371L430.039 -267.668L440.452 -299.239L447.009 -299.854ZM424.109 -272.691L396.774 -295.549L432.642 -298.624L424.109 -272.691ZM371.946 -238.25L339.019 -250.345L358.689 -317.741L388 -293.191L371.946 -238.25ZM336.801 -251.165L295.196 -266.438L341.189 -319.381L348.083 -326.607L356.712 -319.381L336.801 -251.165ZM336.126 -324.762L285.217 -266.182L251.229 -296.42L252.724 -298.265C255.279 -299.342 257.786 -300.93 260.003 -303.288C270.32 -314.256 291.484 -339.83 297.51 -347.159L341.285 -330.195L336.126 -324.762ZM254.941 -308.669C245.058 -298.163 225.967 -309.182 225.774 -309.284L225.63 -309.387L221.291 -311.386L250.024 -371.709L292.111 -352.233C286.278 -345.058 265.017 -319.381 254.941 -308.669ZM215.891 -305.645L187.303 -245.63L160.402 -258.238L160.643 -259.058L181.807 -321.431L215.891 -305.645ZM186.194 -243.375L172.165 -213.956L146.566 -212.368L159.582 -255.829L186.194 -243.375ZM133.356 -193.251L100.188 -208.216L125.353 -271.922L153.074 -258.904L133.356 -193.251ZM71.1656 -266.643L112.915 -246.911L98.0185 -209.241L45.9519 -232.766L71.1656 -266.643ZM44.361 -230.664L97.0543 -206.884L80.1327 -163.884L14.8566 -190.945L44.361 -230.664ZM79.747 -161.577L78.3971 -157.375L7.57697 -186.178L7.57697 -191.713L79.747 -161.577ZM-10.7427 -18.432L-18.0706 3.14486L-63.2431 -16.5357L-55.626 -37.3438L-10.7427 -18.432ZM-8.52507 -17.5094L-8.42863 -17.4583L32.5979 -33.9612L42.1916 -20.1745L40.4561 -3.51781L25.27 -9.92424L14.8085 17.4953L-15.8529 4.11868L-8.52507 -17.5094ZM13.9407 19.8016L5.60041 41.686L2.80427 42.7622L2.56321 43.2748L-25.0128 31.1282L-16.6243 6.47622L13.9407 19.8016ZM8.58942 40.5584L26.6199 -6.64415L40.2151 -0.904036L37.0332 29.7444L8.58942 40.5584ZM42.5291 0.0697798L72.2745 12.6264L71.8406 14.3177L59.5471 21.1854L39.5401 28.7706L42.5291 0.0697798ZM85.0501 -7.10546L93.6796 -35.9089L120.436 -26.581L101.297 40.5584L74.6368 31.4357L85.0501 -7.10546ZM122.702 -25.8122L152.881 -15.3057L133.115 51.4238L103.563 41.276L122.702 -25.8122ZM145.409 18.5715L170.43 27.1818L160.498 60.854L135.478 52.295L145.409 18.5715ZM159.775 63.2628L151.29 91.9637L126.221 83.3535L134.706 54.6526L159.775 63.2628ZM162.041 64.0316L182.771 71.1044L174.335 99.8564L153.556 92.7324L162.041 64.0316ZM185.037 71.8731L205.816 78.9971L197.138 107.698L176.601 100.625L185.037 71.8731ZM198.681 110.927L228.089 121.023L216.615 160.384L186.725 150.339L198.681 110.927ZM230.354 121.792L263.426 133.17L252.001 172.275L218.88 161.153L230.354 121.792ZM265.692 133.939L298.186 145.111L252.29 179.86L265.692 133.939ZM349.915 190.418L325.858 224.449L292.834 198.567L305.562 152.235L349.915 190.418ZM292.111 201.129L324.412 226.448L309.901 246.999L281.312 240.593L292.111 201.129ZM356.134 185.959L356.327 185.959L357.05 113.284L379.901 97.9601L383.517 97.9601L381.926 193.647L374.839 202.462L356.134 185.959ZM385.879 97.9601L414.082 97.9601L413.069 152.799L384.288 190.93L385.879 97.9601ZM416.492 97.9601L440.549 97.9601L440.067 117.538L415.576 150.032L416.492 97.9601ZM443.104 90.7849L444.02 50.7062L471.934 30.9743L471.5 90.7337L443.104 90.7337L443.104 90.7849ZM474.392 28.7193L500.233 10.525L498.786 90.7849L473.91 90.7849L474.392 28.7193ZM502.643 8.16744L530.557 -11.5131L531.521 90.7849L501.197 90.7849L502.643 8.16744ZM503.366 -32.065L505.102 -127.085L529.399 -137.643L530.412 -32.6288L503.366 -32.065ZM504.813 -129.699L492.712 -195.506L496.617 -202.322L529.014 -175.21L529.351 -140.411L504.813 -129.699ZM531.424 -173.16L556.493 -152.147L531.714 -141.384L531.424 -173.16ZM532.099 -182.898L532.099 -209.139L561.025 -213.239L561.025 -158.759L532.099 -182.898ZM563.918 -213.598L589.228 -217.288L589.903 -155.684L563.532 -156.709L563.918 -156.811L563.918 -213.598ZM589.228 -219.85L563.966 -216.16L563.966 -289.04L588.456 -288.066L589.228 -219.85ZM547.96 -292.166L548.105 -292.423L548.201 -292.576L567.774 -369.351C574.668 -344.75 581.611 -319.586 587.251 -298.675L587.396 -290.629L547.96 -292.166ZM591.59 -310.104C587.781 -324.096 580.357 -351.208 572.451 -379.294L597.279 -394.259L622.878 -382.266L591.59 -310.104ZM591.783 -393.849L571.728 -381.754C571.294 -383.24 570.908 -384.675 570.474 -386.162C566.232 -401.178 562.616 -413.684 559.531 -424.088L581.032 -430.597L591.783 -393.849ZM564.93 -379.345L530.894 -374.784L523.711 -418.604L552.492 -422.601C556.349 -409.481 560.591 -394.669 564.93 -379.345ZM528.532 -374.425L501.341 -370.786L495.074 -414.555L521.348 -418.245L528.532 -374.425ZM473.283 -364.482L480.563 -305.287L441.368 -301.904L447.154 -319.432L452.794 -361.663L473.283 -364.482ZM440.163 -321.277L433.558 -301.238L394.075 -297.855L391.23 -300.264L388.82 -353.104L445.418 -360.741L440.163 -321.277ZM388.723 -302.365L353.241 -332.091L379.997 -360.228L386.361 -353.668L388.723 -302.365ZM346.925 -336.14L336.56 -340.138L370.548 -413.94L404.295 -396.463L346.925 -336.14ZM369.439 -417.374L338.392 -433.467L348.227 -453.301L380.624 -441.616L369.439 -417.374ZM248.963 -374.989L206.876 -394.464L251.084 -485.179L252.386 -487.793L294.377 -472.674L248.963 -374.989ZM244.769 -488.767L226.497 -451.251L200.657 -462.577L216.566 -502.912L245.637 -490.458L244.769 -488.767ZM185.857 -466.268L197.475 -461.194L176.649 -408.405L166.958 -412.915L185.857 -466.268ZM175.733 -406.098L166.958 -383.906L157.943 -387.597L166.091 -410.506L175.733 -406.098ZM177.902 -405.073L199.211 -395.233L177.661 -331.681L153.411 -342.957L177.902 -405.073ZM175.202 -324.506L153.845 -261.62L153.749 -261.364L126.221 -274.28L150.567 -335.935L175.202 -324.506ZM124.1 -275.305L89.2925 -291.654L114.169 -352.848L148.446 -336.96L124.1 -275.305ZM12.5426 -191.918L3.43091 -195.711L13.796 -204.834L13.5068 -205.192L28.4036 -239.428L66.2482 -299.7L85.8696 -290.526L12.5426 -191.918ZM25.752 -239.377L11.0963 -205.705L1.74356 -197.454L18.0385 -243.016L25.752 -239.377ZM-5.29504 -199.299L-28.1465 -208.78L-8.4287 -255.624L11.4819 -246.194L-5.29504 -199.299ZM-30.3641 -209.703L-53.6012 -219.338L-33.9799 -267.719L-10.5981 -256.649L-30.3641 -209.703ZM-105.668 -301.699L-86.9142 -292.832L-107.548 -241.735L-126.832 -249.73L-105.668 -301.699ZM-84.7448 -291.807L-61.3148 -280.686L-82.1414 -231.177L-105.33 -240.812L-84.7448 -291.807ZM-15.6602 -319.33L-35.2333 -271.102L-58.1812 -281.967L-39.524 -326.351L-15.6602 -319.33ZM-60.3506 -282.992L-83.8288 -294.114L-53.2638 -369.659L-42.0791 -327.12L-41.8381 -327.017L-60.3506 -282.992ZM-59.1454 -279.661L-36.1493 -268.744L-55.8189 -220.26L-79.9238 -230.254L-59.1454 -279.661ZM-33.0157 -269.308L-13.2979 -317.177L15.5316 -317.177L-9.58574 -257.828L-33.0157 -269.308ZM-12.8158 -326.351L-36.294 -333.27L-36.4386 -333.782L-5.63256 -409.276L16.785 -399.436L-12.8158 -326.351ZM-37.451 -337.678L-48.7803 -380.524L-48.3946 -381.241L-31.9069 -420.602L-7.80203 -410.147L-37.451 -337.678ZM-30.9427 -423.165L-3.02925 -489.382L20.0632 -478.722L-6.93426 -412.607L-30.9427 -423.165ZM-33.1122 -424.139L-54.5173 -433.518L-27.086 -500.452L-5.1505 -490.356L-33.1122 -424.139ZM-55.4815 -431.212L-34.1245 -421.833L-49.8409 -384.624L-58.5187 -417.579L-57.6991 -419.577L-59.8686 -420.602L-55.4815 -431.212ZM-63.0022 -406.508L-54.3244 -373.554L-85.9982 -295.19L-104.752 -304.057L-63.0022 -406.508ZM-91.8798 -354.796L-114.394 -365.712L-89.3729 -426.548L-67.1 -415.734L-91.8798 -354.796ZM-92.7958 -352.489L-111.308 -307.132L-134.208 -317.536L-115.31 -363.406L-92.7958 -352.489ZM-112.224 -304.774L-133.34 -253.01L-155.276 -266.233L-135.124 -315.178L-112.224 -304.774ZM-127.796 -247.372L-108.512 -239.377L-122.83 -204.014L-141.247 -214.469L-127.796 -247.372ZM-106.295 -238.455L-83.1056 -228.871L-99.063 -191.047L-96.8936 -190.022L-80.9362 -227.948L-57.2652 -218.108L-84.1662 -181.976L-120.757 -202.784L-106.295 -238.455ZM-85.3233 -179.823L-101.184 -138.514L-126.205 -150.302L-108.898 -193.2L-85.3233 -179.823ZM-82.8163 -179.772L-54.9511 -217.185L-31.3765 -207.396L-45.4056 -174.083L-45.502 -173.878L-45.9841 -155.632L-77.8989 -127.546L-99.0148 -137.489L-82.8163 -179.772ZM-11.1766 -182.847L-42.2237 -96.078L-61.7487 -104.278L-47.0447 -118.987L-48.6838 -120.832L-83.7323 -85.8277L-99.4005 -105.303L-11.1766 -182.847ZM-83.5877 -82.4963L-52.4441 -67.4796L-59.6756 -47.2866L-101.232 -64.8146L-83.5877 -82.4963ZM-70.7156 -17.0482L-79.538 7.19376L-123.939 -12.3331L-115.503 -36.575L-70.7156 -17.0482ZM-64.0627 -14.1781L-18.8419 5.50247L-27.2304 30.1544L-72.8851 10.0638L-64.0627 -14.1781ZM-28.05 32.5633L-36.8724 58.5478L-83.1538 38.2009L-73.7529 12.4726L-28.05 32.5633ZM-25.8806 33.537L1.35795 45.5299L-11.0802 69.9255L-34.7029 59.5216L-25.8806 33.537ZM-12.2372 72.1294L-22.9397 93.0913L-43.1396 84.3272L-35.5225 61.8278L-12.2372 72.1294ZM-24.0968 95.3976L-38.2222 123.022L-54.4207 117.384L-44.0074 86.7873L-24.0968 95.3976ZM-39.4275 125.226L-52.3477 148.084L-63.4842 144.138L-55.1921 119.691L-39.4275 125.226ZM-53.6011 150.339L-66.9552 174.017L-72.885 171.865L-64.2555 146.547L-53.6011 150.339ZM-68.2087 176.272L-76.3079 190.623L-80.9361 195.594L-73.7046 174.274L-68.2087 176.272ZM-38.8489 213.788L-46.9 209.33L-28.6767 189.444L-38.8489 213.788ZM-25.8805 182.781L-49.1176 208.151L-71.1977 196.004L-70.6674 195.44L-32.7745 128.301L-8.76605 141.831L-25.8805 182.781ZM-31.5693 125.995L-17.3956 98.2677L5.31118 108.108L-7.75363 139.423L-31.5693 125.995ZM40.3115 130.864L2.75607 120.46L12.4944 97.1914L46.627 107.595L40.3115 130.864ZM47.2537 105.187L13.4586 94.885L22.1846 73.9744L53.4728 82.0722L47.2537 105.187ZM23.197 71.6168L37.3707 37.6884L62.1987 28.2581L69.0927 24.4143L54.1959 79.6121L23.197 71.6168ZM73.9619 33.8446L100.622 42.9673L87.7017 88.3248L61.0899 81.4059L73.9619 33.8446ZM125.498 85.7623L150.567 94.3725L138.804 134.195L113.687 125.738L125.498 85.7623ZM152.833 95.1413L173.611 102.265L161.993 141.985L141.07 134.964L152.833 95.1413ZM161.27 144.445L145.602 197.901L124.389 191.34L140.299 137.424L161.27 144.445ZM167.151 207.177L163.005 233.52L123.039 224.244L130.946 195.953L167.151 207.177ZM122.316 226.704L162.572 236.032L160.45 249.46L130.078 272.472L115.471 251.202L122.316 226.704ZM119.327 261.145L128.102 273.907L106.889 289.948L99.5613 274.368L119.327 261.145ZM168.453 278.007L155.195 262.734L166.284 254.328L177.661 267.141L168.453 278.007ZM163.198 247.358L169.465 207.895L202.007 217.991L163.198 247.358ZM217.627 165.356L218.157 163.562L251.277 174.684L249.06 182.269L207.889 213.481L217.627 165.356ZM297.27 155.106L274.274 238.953L246.794 232.188L250.217 190.725L297.27 155.106ZM280.637 243.053L309.852 249.613L326.678 263.4L269.115 284.977L280.637 243.053ZM328.943 265.245L350.541 282.978L336.03 301.326L323.833 267.141L328.943 265.245ZM330.824 263.605L372.139 209.535L393.737 228.139L352.036 281.03L330.824 263.605ZM455.253 149.16L473.428 97.9601L498.642 97.9601L497.919 135.322L466.823 177.502L455.253 149.16ZM535.474 97.9601L560.061 97.9601L535.474 132.094L535.474 97.9601ZM561.025 29.8468L553.312 30.1543L553.312 3.14479L561.025 3.14479L561.025 29.8468ZM561.025 0.0697175L549.455 0.0697189L549.455 32.7681L561.025 32.3582L561.025 90.7849L533.883 90.7849L533.304 -13.7682L560.977 -34.6788L560.977 0.0697176L561.025 0.0697175ZM545.453 -32.885L532.967 -32.6288L531.858 -138.617L558.711 -150.302L559.193 -149.892L560.543 -149.123L561.073 -149.123L561.073 -43.9041L545.453 -32.885ZM563.918 -149.072L590.337 -148.047L592.024 -66.301L563.918 -45.6467L563.918 -149.072ZM620.805 -146.868L645.681 -145.946L625.867 -112.222L620.805 -146.868ZM623.216 -154.402L621.721 -221.952L647.995 -225.693L647.899 -153.48L623.216 -154.402ZM621.673 -224.566L620.275 -286.785L647.031 -285.709L648.092 -285.247L647.995 -228.307L621.673 -224.566ZM594.531 -290.321L594.386 -298.419L629.386 -379.14L652.334 -368.377L618.298 -289.399L594.531 -290.321ZM630.399 -381.446L658.987 -447.356L681.598 -436.132L653.347 -370.684L630.399 -381.446ZM623.842 -384.522L601.762 -394.874L629.145 -462.168L652.479 -450.585L623.842 -384.522ZM630.11 -464.525L657.107 -530.793L682.032 -518.749L653.491 -452.891L630.11 -464.525ZM586.335 -515.469L601.232 -476.825L583.25 -433.877L582.671 -433.723L559.627 -512.394C564.544 -514.085 569.847 -515.315 574.909 -515.315C577.706 -515.315 581.659 -515.315 586.335 -515.469ZM580.309 -433.057L558.807 -426.548C544.634 -474.468 542.561 -475.749 540.873 -476.774C539.331 -477.697 534.895 -481.643 529.255 -487.076L540.006 -502.81C541.982 -504.091 548.924 -508.396 557.361 -511.625L580.309 -433.057ZM536.824 -470.521C538.897 -467.088 544.586 -449.252 551.769 -425.061L523.325 -421.064L515.756 -467.241L525.109 -480.874C530.508 -475.749 534.847 -471.905 536.824 -470.521ZM513.683 -464.935L520.963 -420.756L494.737 -417.066L490.398 -447.407L513.683 -464.935ZM488.18 -445.818L492.326 -416.759L459.495 -412.146L461.279 -425.625L488.18 -445.818ZM445.756 -363.303L387.952 -355.564L381.685 -362.022L410.852 -392.67L453.324 -420.346L445.756 -363.303ZM408.007 -472.982L409.598 -433.825L383.999 -443.051L399.281 -476.21L408.007 -472.982ZM381.685 -443.871L349.384 -455.505L365.824 -488.613L396.967 -477.082L381.685 -443.871ZM347.07 -456.325L319.301 -466.319L324.604 -484.616L322.338 -485.384L317.035 -467.19L297.703 -474.16L313.468 -508.038L363.51 -489.485L347.07 -456.325ZM332.896 -555.343L312.359 -511.164L293.461 -518.749L318.289 -563.184L332.896 -555.343ZM291.147 -519.62L272.249 -527.206L296.305 -574.87L316.071 -564.312L291.147 -519.62ZM271.14 -524.951L311.25 -508.909L295.486 -474.98L253.543 -490.1L271.14 -524.951ZM215.216 -506.193L181.952 -519.723L195.499 -552.985L227.992 -538.43L215.216 -506.193ZM181.036 -517.365L198.873 -510.088L164.789 -413.889L143.095 -423.934L181.036 -517.365ZM163.921 -411.531L154.906 -386.11L166.042 -381.549L151.194 -343.93L117.013 -359.818L142.13 -421.628L163.921 -411.531ZM69.3818 -373.605L111.951 -353.822L87.0748 -292.628L43.2522 -313.179L69.3818 -373.605ZM12.3497 -248.551L-7.46449 -257.93L18.0385 -318.561L34.8636 -311.488L12.3497 -248.551ZM18.6169 -324.865L-10.2125 -324.865L46.6268 -465.806L69.4782 -454.941L18.6169 -324.865ZM17.7492 -401.793L-4.66839 -411.633L22.2809 -477.697L44.4091 -467.498L17.7492 -401.793ZM63.5484 -563.235L51.496 -555.548L21.1238 -481.079L-1.96865 -491.74L39.1543 -589.169L65.8624 -575.433L63.5484 -563.235ZM-4.1863 -492.713L-26.1218 -502.81L14.4226 -601.777L36.9366 -590.194L-4.1863 -492.713ZM-28.3394 -503.835L-52.8782 -515.161L-11.7071 -615.256L12.2532 -602.955L-28.3394 -503.835ZM-29.3036 -501.477L-61.9898 -421.679L-86.4321 -433.569L-53.7942 -512.855L-29.3036 -501.477ZM-91.4942 -427.624L-116.515 -366.788L-141.102 -378.73L-116.081 -439.617L-91.4942 -427.624ZM-117.479 -364.431L-136.377 -318.509L-161.157 -329.785L-142.018 -376.372L-117.479 -364.431ZM-163.375 -330.759L-184.394 -340.343L-164.291 -387.135L-144.236 -377.397L-163.375 -330.759ZM-164.339 -328.452L-183.044 -282.941L-203.726 -295.395L-185.407 -337.985L-164.339 -328.452ZM-162.121 -327.479L-137.342 -316.203L-157.397 -267.514L-180.971 -281.711L-162.121 -327.479ZM-158.313 -265.157L-172.053 -231.741L-195.965 -245.066L-181.887 -279.405L-158.313 -265.157ZM-156.24 -263.875L-134.304 -250.653L-147.61 -218.057L-169.98 -230.511L-156.24 -263.875ZM-148.526 -215.699L-167.28 -169.675L-190.517 -180.643L-170.944 -228.204L-148.526 -215.699ZM-152.142 -187.716L-136.088 -179.259L-135.028 -181.514L-151.178 -190.022L-142.163 -212.111L-110.971 -194.378L-128.375 -151.327L-160.723 -166.6L-152.142 -187.716ZM-102.1 -136.157L-111.887 -110.582L-172.535 -137.643L-161.688 -164.243L-102.1 -136.157ZM-99.8826 -135.132L-79.9237 -125.701L-115.503 -94.438L-99.8826 -135.132ZM-101.281 -103.663L-85.5161 -84.0852L-103.788 -65.8396L-131.171 -77.3712L-101.281 -103.663ZM-109.862 -60.2533L-116.949 -39.9576L-141.921 -50.823L-124.662 -66.5059L-109.862 -60.2533ZM-143.946 -48.9779L-117.768 -37.5488L-126.205 -13.3068L-164.628 -30.2198L-143.946 -48.9779ZM-166.605 -28.3748L-126.976 -10.9492L-135.992 14.9328L-187.48 -7.72048L-188.54 -8.48921L-166.605 -28.3748ZM-124.807 -9.97549L-80.4058 9.55136L-89.8067 35.2795L-133.822 15.9066L-124.807 -9.97549ZM-90.6745 37.6371L-98.9184 60.239L-142.645 41.3272L-134.642 18.3153L-90.6745 37.6371ZM-84.0697 40.5584L-37.7401 60.9565L-45.4055 83.456L-92.3136 63.1604L-84.0697 40.5584ZM-46.1769 85.8136L-56.6384 116.564L-105.571 99.4977L-93.1332 65.4667L-46.1769 85.8136ZM-57.458 118.973L-65.75 143.42L-115.213 125.995L-106.439 101.907L-57.458 118.973ZM-66.5695 145.778L-75.1991 171.096L-123.602 153.619L-115.985 128.352L-66.5695 145.778ZM-75.9704 173.505L-84.5036 198.618L-131.508 180.014L-124.277 156.079L-75.9704 173.505ZM-85.8052 200.771L-103.932 220.195L-139.656 206.87L-132.279 182.371L-85.8052 200.771ZM-105.764 222.245L-127.989 246.077L-148.864 237.569L-140.379 209.33L-105.764 222.245ZM-129.869 248.025L-152.624 272.369L-158.602 269.653L-149.635 239.927L-129.869 248.025ZM-154.408 274.317L-162.603 283.08L-159.277 272.062L-154.408 274.317ZM-105.909 233.213L-87.8782 250.433L-113.912 278.827L-144.428 274.47L-105.909 233.213ZM-86.1427 252.125L-63.8216 273.496L-68.739 285.336L-111.019 279.288L-86.1427 252.125ZM-6.59662 142.908L31.5855 164.382L11.7713 241.669L-12.0443 236.339L-12.5264 238.799L11.1928 244.078L-1.77559 294.766L-66.1839 285.541L-6.59662 142.908ZM38.2385 167.97L63.0665 176.016L29.5126 294.253L6.13081 294.253L38.2385 167.97ZM38.8652 164.792L43.7344 145.829L60.4632 83.866L87.0268 90.7337L63.7414 172.48L38.8652 164.792ZM77.0473 134.605L106.07 143.113L94.5475 182.064L66.0555 173.249L77.0473 134.605ZM112.964 128.199L138.081 136.655L122.123 190.623L96.8133 182.781L112.964 128.199ZM199.259 265.553L184.459 261.709L187.882 244.181L200.223 238.85L203.55 226.96L199.259 265.553ZM247.71 192.673L244.48 231.419L212.661 219.221L247.71 192.673ZM246.36 234.699L273.599 241.413L261.353 286.002L235.899 274.368L246.36 234.699ZM235.272 276.777L260.727 288.411L247.951 334.998L222.014 327.208L235.272 276.777ZM263.378 305.887L271.67 327.721L255.665 334.076L263.378 305.887ZM352.422 284.516L373.248 301.582L347.986 334.742L337.043 304.042L352.422 284.516ZM353.964 282.568L395.666 229.728L415.191 246.538L374.743 299.584L353.964 282.568ZM417.023 248.127L436.933 265.296L398.028 318.751L376.623 301.172L417.023 248.127ZM421.506 242.182L466.245 181.5L477.622 209.432L441.32 259.3L421.506 242.182ZM478.731 212.097L489 237.313L461.086 276.315L443.201 260.889L478.731 212.097ZM523.807 201.232L553.36 226.294L497.003 307.169L466.679 281.082L523.807 201.232ZM586.914 251.51L556.59 225.781L585.709 183.96L617.141 211.738L587.589 255.046L586.914 251.51ZM554.758 224.244L525.254 199.233L555.336 157.156L583.925 182.422L554.758 224.244ZM519.661 194.467L502.306 179.757L533.112 137.475L549.889 152.287L519.661 194.467ZM534.51 136.296L563.098 97.9601L589.951 97.9601L551.287 151.569L534.51 136.296ZM563.918 90.7849L563.918 -36.4214L591.831 -56.0506L593.519 90.7849L563.918 90.7849ZM599.352 5.91243L632.81 4.68232L637.92 90.7849L600.702 90.7849L599.352 5.91243ZM599.304 2.27351L598.243 -62.3034L617.141 -76.0387L617.141 -75.885L628.037 -76.6538L632.665 0.479682L599.304 2.27351ZM630.399 -76.8075L657.445 -78.7551L661.639 -1.05786L635.027 0.377204L630.399 -76.8075ZM630.254 -79.3701L629.917 -85.3152L656.095 -104.33L657.348 -81.3177L630.254 -79.3701ZM650.406 -226.052L675.379 -229.588L676.536 -198.479L650.31 -153.787L650.406 -226.052ZM647.754 -288.117L647.562 -288.22L620.853 -289.296L654.552 -367.352L679.235 -355.769L648.719 -287.707L647.754 -288.117ZM694.47 -429.725L667.472 -364.072L655.564 -369.659L683.767 -435.055L694.47 -429.725ZM711.198 -504.655L682.61 -438.387L660 -449.611L688.588 -515.52L711.198 -504.655ZM683.044 -521.056L658.071 -533.1L660.53 -539.096C676.054 -552.421 698.567 -573.281 710.62 -584.556L683.044 -521.056ZM647.272 -537.917C637.823 -531.306 623.987 -526.898 605.908 -524.643L603.739 -560.98C611.404 -563.851 619.021 -567.387 626.253 -571.128L647.272 -537.917ZM573.126 -553.395C582.334 -554.266 591.927 -556.727 601.425 -560.16L603.546 -524.387C594.916 -523.413 585.371 -522.901 574.909 -522.901C569.076 -522.901 563.05 -521.517 557.506 -519.62L549.117 -548.321C556.879 -550.935 564.93 -552.626 573.126 -553.395ZM546.851 -547.604L555.24 -518.852C544.489 -514.803 536.101 -509.165 535.57 -508.806L534.992 -508.396L523.903 -492.15C516.19 -499.735 507.271 -508.858 500.329 -516.75C505.921 -523.054 521.782 -538.789 546.851 -547.604ZM432.401 -550.064C457.181 -555.189 472.56 -555.291 478.152 -550.32C480.852 -547.911 480.997 -544.426 480.949 -539.045C480.9 -536.226 480.852 -533.305 481.624 -530.691C483.986 -522.593 504.186 -501.119 519.709 -485.999L509.537 -471.137L459.64 -433.723C453.228 -451.2 429.991 -514.803 423.241 -541.3C422.663 -543.504 422.326 -545.861 422.181 -548.373C425.411 -548.783 428.786 -549.346 432.401 -550.064ZM361.244 -583.531C366.499 -568.668 374.887 -544.939 415.046 -547.604C415.239 -544.682 415.624 -541.864 416.299 -539.25C420.783 -521.67 432.016 -489.023 441.176 -463.295L314.577 -510.293L335.018 -554.215L336.271 -553.549L337.332 -555.804L336.078 -556.47L354.494 -595.985C355.7 -594.909 356.616 -593.884 357.242 -593.013C358.64 -590.911 359.846 -587.529 361.244 -583.531ZM318.482 -618.69C331.643 -611.566 345.238 -603.57 352.566 -597.625L333.957 -557.598L297.51 -577.073L318.482 -618.69ZM289.941 -578.252L261.45 -521.875L250.217 -531.101L249.494 -530.076L249.976 -531.255L231.077 -539.762L253.881 -597.523L289.941 -578.252ZM251.759 -598.65L228.908 -540.736L196.463 -555.291L220.809 -615.204L251.759 -598.65ZM140.877 -424.959L120.918 -434.184L131.862 -460.425L129.114 -467.959L137.213 -487.178L144.3 -490.971L159.727 -528.436L178.818 -518.442L140.877 -424.959ZM157.606 -529.512L142.468 -492.765L130.56 -486.409L120.581 -492.047L140.636 -538.378L157.606 -529.512ZM63.9341 -379.243L37.6598 -318.458L20.8828 -325.531L44.3128 -385.341L63.9341 -379.243ZM70.346 -458.324L47.5428 -468.83L82.1092 -554.164L83.4108 -554.779L83.7001 -556.06L83.7001 -571.794L117.109 -575.075L70.346 -458.324ZM80.8557 -571.538L80.8557 -560.058L75.167 -568.309L66.6338 -564.568L68.2248 -574.254L75.0705 -571.077L80.8557 -571.538ZM-24.5309 -621.765L-13.8765 -616.281L-55.0958 -516.135L-85.468 -530.127L-24.5309 -621.765ZM-178.368 -570.206L-89.0837 -529.051L-103.016 -508.089L-189.601 -549.961L-178.368 -570.206ZM-190.806 -547.757L-104.414 -505.987L-136.426 -457.811L-218.575 -497.685L-190.806 -547.757ZM-137.293 -449.867L-118.251 -440.642L-143.271 -379.755L-163.279 -389.442L-137.293 -449.867ZM-185.792 -397.591L-166.412 -388.212L-186.564 -341.368L-205.992 -350.183C-195.049 -376.321 -187.721 -393.234 -185.792 -397.591ZM-217.707 -321.995C-213.851 -331.374 -210.283 -339.984 -207.005 -347.877L-187.624 -339.061L-205.848 -296.728L-222.191 -306.568C-221.323 -311.437 -219.925 -316.613 -217.707 -321.995ZM-222.48 -303.8L-206.764 -294.319L-216.84 -270.846C-221.13 -279.866 -223.975 -290.936 -222.48 -303.8ZM-215.49 -268.078L-204.739 -293.089L-184.009 -280.583L-198.038 -246.399C-201.027 -248.961 -209.271 -256.495 -215.49 -268.078ZM-196.929 -242.709L-173.017 -229.383L-192.638 -181.668L-217.225 -193.251L-196.929 -242.709ZM-218.238 -190.893L-193.651 -179.31L-204.883 -152.045L-229.663 -163.115L-218.238 -190.893ZM-202.666 -151.071L-191.481 -178.285L-168.244 -167.318L-179.139 -140.564L-202.666 -151.071ZM-173.499 -135.337L-112.803 -108.276L-119.408 -91.0554L-133.678 -78.4987L-187.432 -101.152L-173.499 -135.337ZM-127.169 -67.5309L-190.613 -9.92421L-216.888 -28.836L-190.276 -94.1304L-127.169 -67.5309ZM-230.001 3.45238L-217.804 -26.4785L-192.445 -8.23293L-213.272 10.6788L-230.001 3.45238ZM-210.813 11.7551L-190.421 -6.74666L-188.733 -5.51662L-188.637 -5.46535L-136.859 17.3415L-144.862 40.3535L-210.813 11.7551ZM-143.464 43.6848L-99.7861 62.5967L-112.369 97.1401L-156.674 81.7134L-143.464 43.6848ZM-157.493 84.071L-113.237 99.4977L-122.011 123.535L-165.882 108.057L-157.493 84.071ZM-166.701 110.466L-122.782 125.943L-130.399 151.159L-175.234 134.964L-166.701 110.466ZM-176.054 137.373L-131.074 153.568L-138.209 177.297L-183.671 159.359L-176.054 137.373ZM-184.539 161.768L-138.981 179.758L-146.405 204.358L-193.313 186.882L-184.539 161.768ZM-194.133 189.29L-147.128 206.818L-155.565 234.853L-203.196 215.429L-194.133 189.29ZM-204.064 217.837L-156.336 237.262L-165.207 266.68L-213.465 244.796L-204.064 217.837ZM-214.236 247.153L-165.882 269.089L-172.824 292.152L-223.541 273.907L-214.236 247.153ZM-164.676 296.15L-146.55 276.725L-115.985 281.082L-142.018 309.526L-164.676 296.15ZM-113.092 281.543L-69.7514 287.744L-91.3976 339.508L-139.945 310.859L-113.092 281.543ZM-89.2281 340.533L-83.2501 326.234L-49.9854 342.84L-48.9729 340.533L-82.2859 323.928L-67.2927 288.052L-2.73979 297.277L-32.0513 364.212L-89.2281 340.533ZM4.10603 382.867L-25.4948 368.722L3.72032 302.402L27.2949 302.402L4.10603 382.867ZM65.3324 176.375L93.7761 185.549L61.7167 294.253L31.9712 294.253L65.3324 176.375ZM41.6132 350.015L53.0389 302.454L81.8201 302.454L70.3463 347.094L41.6132 350.015ZM72.7567 346.889L84.2788 302.454L105.443 302.454L110.698 297.482L112.674 297.585L98.5972 354.371L72.7567 346.889ZM105.877 334.332L114.988 297.738L138.129 304.657L129.933 341.2L105.877 334.332ZM132.248 341.866L140.443 305.375L167.007 313.37L157.027 349.041L132.248 341.866ZM184.507 356.883L159.341 349.656L169.321 314.036L192.992 321.16L184.507 356.883ZM195.692 319.315L206.25 224.039L210.251 221.015L244.046 233.982L219.652 326.542L195.692 319.315ZM211.89 365.544L221.339 329.668L247.276 337.458L237.731 372.309L211.89 365.544ZM245.01 372.924L254.845 337.1L272.586 330.078L283.53 358.984L245.01 372.924ZM274.804 329.207L296.932 320.443L308.117 350.117L285.796 358.164L274.804 329.207ZM310.334 349.349L299.102 319.572L334.921 305.375L346.01 336.433L310.334 349.349ZM358.351 363.853L348.951 337.51L375.128 303.171L396.485 320.699L358.351 363.853ZM399.908 320.289L438.765 266.885L456.699 282.312L418.565 335.613L399.908 320.289ZM455.832 366.159L424.302 340.277L462.34 287.129L492.712 313.268L455.832 366.159ZM498.835 308.757L512.189 289.589L568.257 283.439L531.666 337.048L498.835 308.757ZM558.133 359.804L533.546 338.637L544.73 322.288L570.185 340.636L558.133 359.804ZM606.294 363.648L573.463 339.918L595.013 305.529L606.294 363.648ZM596.17 299.071L592.603 280.774L608.705 279.032L596.17 299.071ZM592.12 278.263L588.264 258.429L619.022 213.378L630.737 223.731L642.548 272.728L592.12 278.263ZM632.858 222.347L620.42 211.38L634.593 190.623L671.377 269.653L644.91 272.523L632.858 222.347ZM673.932 269.345L636.184 188.265L654.311 161.666L705.703 265.809L673.932 269.345ZM653.106 159.206L618.636 209.74L587.203 181.961L617.961 137.834L627.362 130.863L653.106 159.206ZM616.418 135.886L616.274 135.989L585.371 180.321L556.831 155.106L597.568 98.2163L625.675 129.07L616.418 135.886ZM646.067 90.7849L640.33 90.7849L635.22 4.01606L661.832 2.01722L665.592 73.1543L646.067 90.7849ZM692.349 48.7586L667.81 69.823L664.146 1.35102L688.926 0.0184327L692.349 48.7586ZM688.781 -2.54407L664.049 -1.21161L659.855 -78.9601L683.285 -80.6514L688.781 -2.54407ZM683.092 -83.1627L659.71 -81.4714L658.409 -105.97L680.344 -121.909L683.092 -83.1627ZM682.032 -132.313L681.164 -144.613L698.134 -143.998L682.032 -132.313ZM678.271 -152.352L652.816 -153.275L676.68 -193.968L678.271 -152.352ZM678.753 -202.322L677.693 -229.947L696.494 -232.612L678.753 -202.322ZM698.182 -235.38L677.645 -232.458L676.15 -272.64L710.909 -257.008L698.182 -235.38ZM702.183 -345.007L674.222 -276.278L650.888 -286.734L681.405 -354.744L702.183 -345.007Z" fill="#FCFCFC"></path></g><ellipse opacity="0.2" cx="24.4003" cy="32.8062" rx="3.2375" ry="0.69375" fill="black"></ellipse><path fill-rule="evenodd" clip-rule="evenodd" d="M17 22.5434C17 25.8796 19.4667 29.2323 24.4 32.6013C29.3333 29.2323 31.8 25.8796 31.8 22.5434C31.8 18.3773 28.4869 15 24.4 15C20.3131 15 17 18.3773 17 22.5434ZM21.1113 22.5433C21.1113 24.395 22.5838 25.896 24.4002 25.896C26.2166 25.896 27.6891 24.395 27.6891 22.5433C27.6891 20.6917 26.2166 19.1907 24.4002 19.1907C22.5838 19.1907 21.1113 20.6917 21.1113 22.5433Z" fill="#EA1D2C"></path></g></svg>