<svg xmlns="http://www.w3.org/2000/svg" xmlns:xlink="http://www.w3.org/1999/xlink" width="500" zoomAndPan="magnify" viewBox="0 0 375 374.999991" height="500" preserveAspectRatio="xMidYMid meet" version="1.0"><defs><clipPath id="d6bdc8d385"><path d="M 76.007812 91.628906 L 124.007812 91.628906 L 124.007812 139.628906 L 76.007812 139.628906 Z M 76.007812 91.628906 " clip-rule="nonzero"/></clipPath><clipPath id="2cc8fe9e95"><path d="M 254.527344 78.835938 L 298.777344 78.835938 L 298.777344 152.335938 L 254.527344 152.335938 Z M 254.527344 78.835938 " clip-rule="nonzero"/></clipPath></defs><rect x="-37.5" width="450" fill="#ffffff" y="-37.499999" height="449.999989" fill-opacity="1"/><rect x="-37.5" width="450" fill="#faeab3" y="-37.499999" height="449.999989" fill-opacity="1"/><path fill="#843030" d="M 4.820312 210.195312 C 40.367188 249.273438 88.625 276.222656 140.570312 285.929688 C 194.796875 296.0625 251.566406 288.269531 300.765625 263.203125 C 326.8125 249.929688 350.433594 231.8125 370.09375 210.195312 C 376.664062 202.972656 365.945312 192.195312 359.351562 199.449219 C 325.6875 236.460938 280.746094 261.5625 231.621094 271.027344 C 181.003906 280.78125 127.128906 273.324219 81.242188 249.785156 C 56.460938 237.074219 34.296875 220.046875 15.5625 199.449219 C 8.96875 192.199219 -1.753906 202.96875 4.820312 210.195312 " fill-opacity="1" fill-rule="nonzero"/><path fill="#843030" d="M 240.742188 277.167969 C 256.027344 253.71875 270.902344 230 285.554688 206.160156 C 291.722656 196.117188 302.359375 182.292969 315.941406 183.984375 C 320.152344 184.507812 323.070312 187.8125 324.324219 192.683594 C 326.285156 200.308594 324.824219 208.507812 322.375 215.835938 C 319.875 223.328125 315.980469 230.328125 311.558594 236.851562 C 309.15625 240.398438 307.859375 242.25 305.121094 245.292969 C 299.683594 251.335938 308.609375 260.316406 314.074219 254.242188 C 322.097656 245.328125 328.535156 234.636719 332.988281 223.535156 C 338.855469 208.894531 342.242188 185.191406 326.886719 174.882812 C 313.652344 166 296.203125 174.625 286.152344 184.339844 C 278.425781 191.808594 273.417969 201.757812 267.8125 210.796875 C 261.96875 220.234375 256.074219 229.640625 250.140625 239.019531 C 243.421875 249.640625 236.675781 260.25 229.8125 270.777344 C 225.347656 277.621094 236.304688 283.976562 240.742188 277.167969 " fill-opacity="1" fill-rule="nonzero"/><path fill="#843030" d="M 278.808594 265.691406 C 292.714844 251.886719 302.5 232.6875 307.625 213.996094 C 309.351562 207.703125 299.582031 205.015625 297.859375 211.300781 C 293.183594 228.355469 284.351562 245.921875 271.644531 258.53125 C 267.011719 263.128906 274.175781 270.292969 278.808594 265.691406 " fill-opacity="1" fill-rule="nonzero"/><g clip-path="url(#d6bdc8d385)"><path fill="#843030" d="M 124.21875 115.734375 C 124.21875 116.523438 124.179688 117.3125 124.101562 118.097656 C 124.023438 118.882812 123.90625 119.664062 123.753906 120.4375 C 123.601562 121.210938 123.410156 121.976562 123.179688 122.730469 C 122.949219 123.488281 122.683594 124.230469 122.382812 124.960938 C 122.082031 125.6875 121.742188 126.402344 121.371094 127.097656 C 121 127.792969 120.59375 128.46875 120.15625 129.125 C 119.714844 129.78125 119.246094 130.417969 118.746094 131.027344 C 118.246094 131.636719 117.714844 132.222656 117.15625 132.78125 C 116.597656 133.335938 116.015625 133.867188 115.402344 134.367188 C 114.792969 134.867188 114.160156 135.339844 113.503906 135.777344 C 112.847656 136.214844 112.171875 136.621094 111.476562 136.992188 C 110.777344 137.367188 110.066406 137.703125 109.335938 138.003906 C 108.605469 138.308594 107.863281 138.574219 107.109375 138.800781 C 106.355469 139.03125 105.589844 139.222656 104.816406 139.375 C 104.039062 139.53125 103.261719 139.644531 102.476562 139.722656 C 101.6875 139.800781 100.902344 139.839844 100.113281 139.839844 C 99.324219 139.839844 98.535156 139.800781 97.75 139.722656 C 96.964844 139.644531 96.183594 139.53125 95.410156 139.375 C 94.636719 139.222656 93.871094 139.03125 93.113281 138.800781 C 92.359375 138.574219 91.617188 138.308594 90.886719 138.003906 C 90.15625 137.703125 89.445312 137.367188 88.75 136.992188 C 88.050781 136.621094 87.375 136.214844 86.71875 135.777344 C 86.0625 135.339844 85.429688 134.867188 84.820312 134.367188 C 84.210938 133.867188 83.625 133.335938 83.066406 132.78125 C 82.507812 132.222656 81.980469 131.636719 81.476562 131.027344 C 80.976562 130.417969 80.507812 129.78125 80.070312 129.125 C 79.628906 128.46875 79.226562 127.792969 78.851562 127.097656 C 78.480469 126.402344 78.144531 125.6875 77.839844 124.960938 C 77.539062 124.230469 77.273438 123.488281 77.042969 122.730469 C 76.816406 121.976562 76.625 121.210938 76.46875 120.4375 C 76.316406 119.664062 76.199219 118.882812 76.121094 118.097656 C 76.046875 117.3125 76.007812 116.523438 76.007812 115.734375 C 76.007812 114.945312 76.046875 114.15625 76.121094 113.371094 C 76.199219 112.585938 76.316406 111.804688 76.46875 111.03125 C 76.625 110.257812 76.816406 109.492188 77.042969 108.738281 C 77.273438 107.980469 77.539062 107.238281 77.839844 106.507812 C 78.144531 105.78125 78.480469 105.066406 78.851562 104.371094 C 79.226562 103.675781 79.628906 103 80.070312 102.34375 C 80.507812 101.6875 80.976562 101.050781 81.476562 100.441406 C 81.980469 99.832031 82.507812 99.246094 83.066406 98.6875 C 83.625 98.132812 84.210938 97.601562 84.820312 97.101562 C 85.429688 96.601562 86.0625 96.128906 86.71875 95.691406 C 87.375 95.253906 88.050781 94.847656 88.75 94.476562 C 89.445312 94.101562 90.15625 93.765625 90.886719 93.464844 C 91.617188 93.160156 92.359375 92.894531 93.113281 92.667969 C 93.871094 92.4375 94.636719 92.246094 95.410156 92.09375 C 96.183594 91.9375 96.964844 91.824219 97.75 91.746094 C 98.535156 91.667969 99.324219 91.628906 100.113281 91.628906 C 100.902344 91.628906 101.6875 91.667969 102.476562 91.746094 C 103.261719 91.824219 104.039062 91.9375 104.816406 92.09375 C 105.589844 92.246094 106.355469 92.4375 107.109375 92.667969 C 107.863281 92.894531 108.605469 93.160156 109.335938 93.464844 C 110.066406 93.765625 110.777344 94.101562 111.476562 94.476562 C 112.171875 94.847656 112.847656 95.253906 113.503906 95.691406 C 114.160156 96.128906 114.792969 96.601562 115.402344 97.101562 C 116.015625 97.601562 116.597656 98.132812 117.15625 98.6875 C 117.714844 99.246094 118.246094 99.832031 118.746094 100.441406 C 119.246094 101.050781 119.714844 101.6875 120.15625 102.34375 C 120.59375 103 121 103.675781 121.371094 104.371094 C 121.742188 105.066406 122.082031 105.78125 122.382812 106.507812 C 122.683594 107.238281 122.949219 107.980469 123.179688 108.738281 C 123.410156 109.492188 123.601562 110.257812 123.753906 111.03125 C 123.90625 111.804688 124.023438 112.585938 124.101562 113.371094 C 124.179688 114.15625 124.21875 114.945312 124.21875 115.734375 Z M 124.21875 115.734375 " fill-opacity="1" fill-rule="nonzero"/></g><g clip-path="url(#2cc8fe9e95)"><path fill="#843030" d="M 291.230469 152.550781 L 254.535156 115.855469 L 291.484375 78.90625 L 298.996094 86.417969 L 269.5625 115.855469 L 298.742188 145.039062 L 291.230469 152.550781 " fill-opacity="1" fill-rule="nonzero"/></g></svg>